<?xml version="1.0" encoding="utf-8"?>
<svg version="1.1" xmlns:xlink="http://www.w3.org/1999/xlink" width="142px" height="40px" xmlns="http://www.w3.org/2000/svg">
  <g transform="matrix(1 0 0 1 -272 -1305 )">
    <path d="M 273 1309  A 3 3 0 0 1 276 1306 L 410 1306  A 3 3 0 0 1 413 1309 L 413 1341  A 3 3 0 0 1 410 1344 L 276 1344  A 3 3 0 0 1 273 1341 L 273 1309  Z " fill-rule="nonzero" fill="#e5e5e5" stroke="none" fill-opacity="0" />
    <path d="M 272.5 1309  A 3.5 3.5 0 0 1 276 1305.5 L 410 1305.5  A 3.5 3.5 0 0 1 413.5 1309 L 413.5 1341  A 3.5 3.5 0 0 1 410 1344.5 L 276 1344.5  A 3.5 3.5 0 0 1 272.5 1341 L 272.5 1309  Z " stroke-width="1" stroke="#333333" fill="none" stroke-opacity="0.745098039215686" />
  </g>
</svg>