<?xml version="1.0" encoding="utf-8"?>
<svg version="1.1" xmlns:xlink="http://www.w3.org/1999/xlink" width="12px" height="12px" viewBox="802 968.5  12 12" xmlns="http://www.w3.org/2000/svg">
  <path d="M 808 968.5  C 811.36 968.5  814 971.14  814 974.5  C 814 977.86  811.36 980.5  808 980.5  C 804.64 980.5  802 977.86  802 974.5  C 802 971.14  804.64 968.5  808 968.5  Z " fill-rule="nonzero" fill="#f0f0f0" stroke="none" />
  <path d="M 808 969  C 811.08 969  813.5 971.42  813.5 974.5  C 813.5 977.58  811.08 980  808 980  C 804.92 980  802.5 977.58  802.5 974.5  C 802.5 971.42  804.92 969  808 969  Z " stroke-width="1" stroke="#797979" fill="none" />
  <path d="M 808 977.5  C 806.32 977.5  805 976.18  805 974.5  C 805 972.82  806.32 971.5  808 971.5  C 809.68 971.5  811 972.82  811 974.5  C 811 976.18  809.68 977.5  808 977.5  " fill-rule="nonzero" fill="#797979" stroke="none" />
</svg>