<?xml version="1.0" encoding="utf-8"?>
<svg version="1.1" xmlns:xlink="http://www.w3.org/1999/xlink" width="12px" height="12px" viewBox="929 968.5  12 12" xmlns="http://www.w3.org/2000/svg">
  <path d="M 935 968.5  C 938.36 968.5  941 971.14  941 974.5  C 941 977.86  938.36 980.5  935 980.5  C 931.64 980.5  929 977.86  929 974.5  C 929 971.14  931.64 968.5  935 968.5  Z " fill-rule="nonzero" fill="#f0f0f0" stroke="none" />
  <path d="M 935 969  C 938.08 969  940.5 971.42  940.5 974.5  C 940.5 977.58  938.08 980  935 980  C 931.92 980  929.5 977.58  929.5 974.5  C 929.5 971.42  931.92 969  935 969  Z " stroke-width="1" stroke="#797979" fill="none" />
  <path d="M 935 977.5  C 933.32 977.5  932 976.18  932 974.5  C 932 972.82  933.32 971.5  935 971.5  C 936.68 971.5  938 972.82  938 974.5  C 938 976.18  936.68 977.5  935 977.5  " fill-rule="nonzero" fill="#797979" stroke="none" />
</svg>