<?xml version="1.0" encoding="utf-8"?>
<svg version="1.1" xmlns:xlink="http://www.w3.org/1999/xlink" width="81px" height="38px" xmlns="http://www.w3.org/2000/svg">
  <g transform="matrix(1 0 0 1 -718 -176 )">
    <path d="M 718.5 201.711656441718  C 718.5 201.711656441718  718.5 179  718.5 179  C 718.5 177.619288125423  719.619288125423 176.5  721 176.5  C 721 176.5  796 176.5  796 176.5  C 797.380711874577 176.5  798.5 177.619288125423  798.5 179  C 798.5 179  798.5 201.711656441718  798.5 201.711656441718  C 798.5 203.092368316295  797.380711874577 204.211656441718  796 204.211656441718  C 796 204.211656441718  767.562644537045 204.211656441718  767.562644537045 204.211656441718  C 767.562644537045 204.211656441718  758.009661421369 213.300659175124  758.009661421369 213.300659175124  C 758.009661421369 213.300659175124  748.970411072476 204.211656441718  748.970411072476 204.211656441718  C 748.970411072476 204.211656441718  721 204.211656441718  721 204.211656441718  C 719.619288125423 204.211656441718  718.5 203.092368316295  718.5 201.711656441718  Z " fill-rule="nonzero" fill="#e1e1e1" stroke="none" />
    <path d="M 718 201.711656441718  C 718 201.711656441718  718 179  718 179  C 718 177.343145750508  719.343145750508 176  721 176  C 721 176  796 176  796 176  C 797.656854249492 176  799 177.343145750508  799 179  C 799 179  799 201.711656441718  799 201.711656441718  C 799 203.36851069121  797.656854249492 204.711656441718  796 204.711656441718  C 796 204.711656441718  767.7625 204.711656441718  767.7625 204.711656441718  C 767.7625 204.711656441718  758 214  758 214  C 758 214  748.7625 204.711656441718  748.7625 204.711656441718  C 748.7625 204.711656441718  721 204.711656441718  721 204.711656441718  C 719.343145750508 204.711656441718  718 203.36851069121  718 201.711656441718  Z M 719 201.711656441718  C 719 202.816225941379  719.895430500338 203.711656441718  721 203.711656441718  C 721 203.711656441718  749.178322144952 203.711656441718  749.178322144952 203.711656441718  C 749.178322144952 203.711656441718  758.019322842738 212.601318350247  758.019322842738 212.601318350247  C 758.019322842738 212.601318350247  767.362789074091 203.711656441718  767.362789074091 203.711656441718  C 767.362789074091 203.711656441718  796 203.711656441718  796 203.711656441718  C 797.104569499662 203.711656441718  798 202.816225941379  798 201.711656441718  C 798 201.711656441718  798 179  798 179  C 798 177.895430500338  797.104569499662 177  796 177  C 796 177  721 177  721 177  C 719.895430500338 177  719 177.895430500338  719 179  C 719 179  719 201.711656441718  719 201.711656441718  Z " fill-rule="nonzero" fill="#e1e1e1" stroke="none" />
  </g>
</svg>