<svg t="1649659608384" class="icon" viewBox="0 0 1024 1024" version="1.1" xmlns="http://www.w3.org/2000/svg" p-id="6419" width="200" height="200"><path d="M819.658544 327.861166 542.141996 177.022763c-9.402137-5.107321-19.72218-7.67275-30.042223-7.67275-10.340509 0-20.682042 2.564405-30.063713 7.67275L204.476533 327.965543c-20.911262 11.341303-33.982976 33.607422-33.982976 57.875129l0 292.607244c0 24.267706 13.071713 46.534849 34.004465 57.896618l277.538037 150.857846c9.381671 5.108345 19.72218 7.67275 30.042223 7.67275 10.340509 0 20.640086-2.564405 30.063713-7.67275l277.538037-150.921291c20.912285-11.382235 33.983999-33.626865 33.983999-57.894571L853.664032 385.756761C853.664032 361.510544 840.591295 339.244424 819.658544 327.861166M832.313771 678.386518c0 16.490579-8.756431 31.480992-22.850427 39.131229L531.92633 868.461551c-6.109138 3.313465-12.94687 5.064342-19.848047 5.064342-6.901177 0-13.739932-1.750877-19.868513-5.064342L214.712665 717.580169c-14.134929-7.65126-22.870894-22.64065-22.870894-39.131229L191.841771 385.840672c0-16.491603 8.735965-31.480992 22.829961-39.153742l277.538037-150.900825c6.128581-3.335978 12.987802-5.086855 19.890003-5.086855 6.879688 0 13.71742 1.750877 19.826558 5.0449l277.538037 150.900825c14.093996 7.65126 22.850427 22.64065 22.850427 39.111786L832.314795 678.386518z" p-id="6420" fill="#ffffff"></path><path d="M661.52192 340.140841 533.426497 340.140841c-11.737322 0-21.348214 9.610892-21.348214 21.348214l0 128.093377c0 11.737322 9.611915 21.348214 21.348214 21.348214l128.095423 0c11.738345 0 21.348214-9.611915 21.348214-21.348214L682.870134 361.490078C682.870134 349.751732 673.260266 340.140841 661.52192 340.140841" p-id="6421" fill="#ffffff"></path><path d="M469.379808 532.278859 341.285408 532.278859c-11.737322 0-21.348214 9.611915-21.348214 21.349237l0 128.093377c0 11.738345 9.610892 21.347191 21.348214 21.347191l128.095423 0c11.738345 0 21.348214-9.609869 21.348214-21.347191L490.729046 553.629119C490.729046 541.890774 481.118154 532.278859 469.379808 532.278859" p-id="6422" fill="#ffffff"></path><path d="M661.52192 532.278859 533.426497 532.278859c-11.737322 0-21.348214 9.611915-21.348214 21.349237l0 128.093377c0 11.738345 9.611915 21.347191 21.348214 21.347191l128.095423 0c11.738345 0 21.348214-9.609869 21.348214-21.347191L682.870134 553.629119C682.870134 541.890774 673.260266 532.278859 661.52192 532.278859" p-id="6423" fill="#ffffff"></path></svg>