<?xml version="1.0" encoding="utf-8"?>
<svg version="1.1" xmlns:xlink="http://www.w3.org/1999/xlink" width="23px" height="23px" xmlns="http://www.w3.org/2000/svg">
  <g transform="matrix(1 0 0 1 -2274 -33 )">
    <path d="M 2285.5 35  C 2290.82 35  2295 39.18  2295 44.5  C 2295 49.82  2290.82 54  2285.5 54  C 2280.18 54  2276 49.82  2276 44.5  C 2276 39.18  2280.18 35  2285.5 35  Z " fill-rule="nonzero" fill="#ffffff" stroke="none" />
    <path d="M 2285.5 34.5  C 2291.1 34.5  2295.5 38.9  2295.5 44.5  C 2295.5 50.1  2291.1 54.5  2285.5 54.5  C 2279.9 54.5  2275.5 50.1  2275.5 44.5  C 2275.5 38.9  2279.9 34.5  2285.5 34.5  Z " stroke-width="3" stroke="#169bd5" fill="none" />
  </g>
</svg>