<?xml version="1.0" encoding="utf-8"?>
<svg version="1.1" xmlns:xlink="http://www.w3.org/1999/xlink" width="155px" height="38px" xmlns="http://www.w3.org/2000/svg">
  <g transform="matrix(1 0 0 1 -339 -1372 )">
    <path d="M 340 1375  A 2 2 0 0 1 342 1373 L 491 1373  A 2 2 0 0 1 493 1375 L 493 1407  A 2 2 0 0 1 491 1409 L 342 1409  A 2 2 0 0 1 340 1407 L 340 1375  Z " fill-rule="nonzero" fill="#ffffff" stroke="none" />
    <path d="M 339.5 1375  A 2.5 2.5 0 0 1 342 1372.5 L 491 1372.5  A 2.5 2.5 0 0 1 493.5 1375 L 493.5 1407  A 2.5 2.5 0 0 1 491 1409.5 L 342 1409.5  A 2.5 2.5 0 0 1 339.5 1407 L 339.5 1375  Z " stroke-width="1" stroke="#000000" fill="none" stroke-opacity="0.349019607843137" />
  </g>
</svg>