<?xml version="1.0" encoding="utf-8"?>
<svg version="1.1" xmlns:xlink="http://www.w3.org/1999/xlink" width="155px" height="38px" xmlns="http://www.w3.org/2000/svg">
  <g transform="matrix(1 0 0 1 -339 -1372 )">
    <path d="M 340.5 1375  A 1.5 1.5 0 0 1 342 1373.5 L 491 1373.5  A 1.5 1.5 0 0 1 492.5 1375 L 492.5 1407  A 1.5 1.5 0 0 1 491 1408.5 L 342 1408.5  A 1.5 1.5 0 0 1 340.5 1407 L 340.5 1375  Z " fill-rule="nonzero" fill="#ffffff" stroke="none" />
    <path d="M 340 1375  A 2 2 0 0 1 342 1373 L 491 1373  A 2 2 0 0 1 493 1375 L 493 1407  A 2 2 0 0 1 491 1409 L 342 1409  A 2 2 0 0 1 340 1407 L 340 1375  Z " stroke-width="2" stroke="#08951a" fill="none" />
  </g>
</svg>