<svg t="1649659562358" class="icon" viewBox="0 0 1024 1024" version="1.1" xmlns="http://www.w3.org/2000/svg" p-id="5336" width="200" height="200"><path d="M357.376 184.832h242.688c67.072 0 121.344 58.88 121.344 131.584v329.216c0 72.704-54.272 131.584-121.344 131.584H357.376c-67.072 0-121.344-58.88-121.344-131.584V316.416c0-72.704 54.272-131.584 121.344-131.584z" fill="#ffffff" p-id="5337"></path><path d="M495.104 918.016H238.08c-50.688 0-92.16-41.472-92.16-92.16v-588.8c0-8.192 3.072-15.872 9.216-21.504l163.84-163.84C324.608 46.08 332.8 42.496 340.48 42.496h410.624c50.688 0 92.16 41.472 92.16 92.16V476.16c-0.512 16.896-14.848 30.208-31.744 29.696-16.384-0.512-29.184-13.312-29.696-29.696V134.656c0-16.896-13.824-30.72-30.72-30.72H353.28L207.36 249.856v576c0 16.896 13.824 30.72 30.72 30.72h256.512c16.896 0.512 30.208 14.848 29.696 31.744 0 16.384-13.312 29.184-29.184 29.696z m232.448-283.648c12.288-1.536 24.064 7.168 25.6 19.456 0.512 2.048 0.512 4.096 0 6.144v92.16c0 14.336-11.264 25.6-25.6 25.6s-25.6-11.264-25.6-25.6v-92.16c-1.536-12.288 7.168-24.064 19.456-25.6 2.048-0.512 4.096-0.512 6.144 0z m-25.6 189.44c0 14.336 11.264 25.6 25.6 25.6s25.6-11.264 25.6-25.6-11.264-25.6-25.6-25.6c-13.824 0-25.6 11.264-25.6 25.6zM668.16 307.2H318.464c-16.896-0.512-30.208-14.848-29.696-31.744 0.512-16.384 13.312-29.184 29.696-29.696h349.696c16.896 0 18.432 13.824 18.432 30.72s-1.024 30.72-18.432 30.72z m62.464 634.88c-109.568 0-198.144-88.576-198.144-198.144s88.576-198.144 198.144-198.144c109.568 0 198.144 88.576 198.144 198.144 0 109.056-88.576 197.632-198.144 198.144z m0-345.088c-80.896 0-146.944 65.536-146.944 146.944s65.536 146.944 146.944 146.944c80.896 0 146.944-65.536 146.944-146.944 0-81.408-66.048-146.944-146.944-146.944zM669.696 476.16H320c-16.896-0.512-30.208-14.848-29.696-31.744 0.512-16.384 13.312-29.184 29.696-29.696h349.696c16.896 0 18.432 13.824 18.432 30.72s-1.536 30.72-18.432 30.72z m-176.128 180.736H320c-16.896 0.512-31.232-12.8-31.744-29.696-0.512-16.896 12.8-31.232 29.696-31.744h175.616c16.896 0.512 30.208 14.848 29.696 31.744-0.512 15.872-13.824 29.184-29.696 29.696z" fill="#ffffff" p-id="5338"></path></svg>