<?xml version="1.0" encoding="utf-8"?>
<svg version="1.1" xmlns:xlink="http://www.w3.org/1999/xlink" width="126px" height="62px" xmlns="http://www.w3.org/2000/svg">
  <g transform="matrix(1 0 0 1 -358 -332 )">
    <path d="M 358.5 386.205882352941  C 358.5 386.205882352941  358.5 332.5  358.5 332.5  C 358.5 332.5  483.5 332.5  483.5 332.5  C 483.5 332.5  483.5 386.205882352941  483.5 386.205882352941  C 483.5 386.205882352941  395.137021651799 386.205882352941  395.137021651799 386.205882352941  C 395.137021651799 386.205882352941  385.3 393.38112167543  385.3 393.38112167543  C 385.3 393.38112167543  375.462978348201 386.205882352941  375.462978348201 386.205882352941  C 375.462978348201 386.205882352941  358.5 386.205882352941  358.5 386.205882352941  Z " fill-rule="nonzero" fill="#f0edad" stroke="none" />
    <path d="M 358 386.705882352941  C 358 386.705882352941  358 332  358 332  C 358 332  484 332  484 332  C 484 332  484 386.705882352941  484 386.705882352941  C 484 386.705882352941  395.3 386.705882352941  395.3 386.705882352941  C 395.3 386.705882352941  385.3 394  385.3 394  C 385.3 394  375.3 386.705882352941  375.3 386.705882352941  C 375.3 386.705882352941  358 386.705882352941  358 386.705882352941  Z M 359 385.705882352941  C 359 385.705882352941  375.625956696402 385.705882352941  375.625956696402 385.705882352941  C 375.625956696402 385.705882352941  385.3 392.76224335086  385.3 392.76224335086  C 385.3 392.76224335086  394.974043303598 385.705882352941  394.974043303598 385.705882352941  C 394.974043303598 385.705882352941  483 385.705882352941  483 385.705882352941  C 483 385.705882352941  483 333  483 333  C 483 333  359 333  359 333  C 359 333  359 385.705882352941  359 385.705882352941  Z " fill-rule="nonzero" fill="#d7d7d7" stroke="none" />
  </g>
</svg>