<svg t="1649746295223" class="icon" viewBox="0 0 1024 1024" version="1.1" xmlns="http://www.w3.org/2000/svg" p-id="3975" width="200" height="200"><path d="M631.466667 650.24H175.786667c-37.546667 0-68.266667-30.72-68.266667-68.266667V126.293333c0-37.546667 30.72-68.266667 68.266667-68.266666H631.466667c37.546667 0 68.266667 30.72 68.266666 68.266666V580.266667c0 39.253333-30.72 69.973333-68.266666 69.973333z" fill="#333333" opacity=".3" p-id="3976"></path><path d="M621.226667 901.12c-34.133333 0-66.56-13.653333-92.16-37.546667-51.2-51.2-51.2-133.12 0-182.613333l170.666666-172.373333c10.24-10.24 25.6-10.24 35.84 0s10.24 25.6 0 35.84L564.906667 716.8c-30.72 30.72-30.72 80.213333 0 110.933333 15.36 15.36 34.133333 22.186667 54.613333 22.186667 20.48 0 40.96-8.533333 54.613333-22.186667l204.8-204.8c8.533333-8.533333 13.653333-18.773333 13.653334-30.72s-5.12-22.186667-13.653334-30.72c-17.066667-17.066667-44.373333-17.066667-61.44 0l-204.8 204.8c-3.413333 3.413333-3.413333 8.533333 0 13.653334 3.413333 3.413333 8.533333 3.413333 13.653334 0l172.373333-172.373334c10.24-10.24 25.6-10.24 35.84 0s10.24 25.6 0 35.84l-170.666667 170.666667c-22.186667 22.186667-63.146667 22.186667-85.333333 0-23.893333-23.893333-23.893333-61.44 0-85.333333l204.8-204.8c37.546667-37.546667 97.28-37.546667 134.826667 0 18.773333 17.066667 27.306667 40.96 27.306666 66.56s-10.24 49.493333-27.306666 66.56l-204.8 204.8c-25.6 25.6-58.026667 39.253333-92.16 39.253333z" fill="#333333" p-id="3977"></path><path d="M527.36 989.866667h-358.4c-47.786667 0-85.333333-40.96-85.333333-92.16V126.293333c0-51.2 37.546667-92.16 85.333333-92.16H785.066667c47.786667 0 85.333333 40.96 85.333333 92.16v285.013334c0 13.653333-11.946667 25.6-25.6 25.6s-25.6-11.946667-25.6-25.6V126.293333c0-22.186667-15.36-40.96-34.133333-40.96H168.96c-18.773333 0-34.133333 18.773333-34.133333 40.96v769.706667c0 22.186667 15.36 40.96 34.133333 40.96H529.066667c13.653333 0 25.6 11.946667 25.6 25.6s-11.946667 27.306667-27.306667 27.306667z" fill="#333333" p-id="3978"></path><path d="M607.573333 310.613333H244.053333c-13.653333 0-25.6-11.946667-25.6-25.6s11.946667-25.6 25.6-25.6h363.52c13.653333 0 25.6 11.946667 25.6 25.6s-10.24 25.6-25.6 25.6zM459.093333 513.706667H244.053333c-13.653333 0-25.6-11.946667-25.6-25.6s11.946667-25.6 25.6-25.6h213.333334c13.653333 0 25.6 11.946667 25.6 25.6s-10.24 25.6-23.893334 25.6z" fill="#333333" p-id="3979"></path></svg>