<svg t="1649926160729" class="icon" viewBox="0 0 1024 1024" version="1.1" xmlns="http://www.w3.org/2000/svg" p-id="1946" width="200" height="200"><path d="M332.8 102.4a25.6 25.6 0 0 1 25.6 25.6v204.8a25.6 25.6 0 0 1-25.6 25.6H128a25.6 25.6 0 0 1-25.6-25.6V128a25.6 25.6 0 0 1 25.6-25.6h204.8m0-102.4H128a128 128 0 0 0-128 128v204.8a128 128 0 0 0 128 128h204.8a128 128 0 0 0 128-128V128a128 128 0 0 0-128-128zM332.8 665.6a25.6 25.6 0 0 1 25.6 25.6v204.8a25.6 25.6 0 0 1-25.6 25.6H128a25.6 25.6 0 0 1-25.6-25.6v-204.8a25.6 25.6 0 0 1 25.6-25.6h204.8m0-102.4H128a128 128 0 0 0-128 128v204.8a128 128 0 0 0 128 128h204.8a128 128 0 0 0 128-128v-204.8a128 128 0 0 0-128-128z" p-id="1947"></path><path d="M563.2 85.76m51.2 0l358.4 0q51.2 0 51.2 51.2l0 0q0 51.2-51.2 51.2l-358.4 0q-51.2 0-51.2-51.2l0 0q0-51.2 51.2-51.2Z" p-id="1948"></path><path d="M563.2 304.384m51.2 0l358.4 0q51.2 0 51.2 51.2l0 0q0 51.2-51.2 51.2l-358.4 0q-51.2 0-51.2-51.2l0 0q0-51.2 51.2-51.2Z" p-id="1949"></path><path d="M563.2 616.96m51.2 0l358.4 0q51.2 0 51.2 51.2l0 0q0 51.2-51.2 51.2l-358.4 0q-51.2 0-51.2-51.2l0 0q0-51.2 51.2-51.2Z" p-id="1950"></path><path d="M563.2 835.584m51.2 0l358.4 0q51.2 0 51.2 51.2l0 0q0 51.2-51.2 51.2l-358.4 0q-51.2 0-51.2-51.2l0 0q0-51.2 51.2-51.2Z" p-id="1951"></path></svg>