<svg t="1649987377145" class="icon" viewBox="0 0 1024 1024" version="1.1" xmlns="http://www.w3.org/2000/svg" p-id="5221" width="200" height="200"><path d="M512 1024c-56.096-89.344-97.184-137.728-123.296-145.184C201.216 825.248 64 652.672 64 448 64 200.576 264.576 0 512 0s448 200.576 448 448c0 203.168-135.232 374.72-320.608 429.632-26.88 7.968-69.376 56.768-127.392 146.368z m352-631.168l-0.032 0.064-61.888-165.6H221.888L160 392.832c0 48.8 39.36 88.32 88 88.32a88.16 88.16 0 0 0 88-88.32c0 48.8 39.36 88.32 88 88.32a88.16 88.16 0 0 0 88-88.32 88.16 88.16 0 0 0 88 88.32 88.16 88.16 0 0 0 88-88.32 88.16 88.16 0 0 0 88 88.32 88.16 88.16 0 0 0 88-88.32zM754.08 194.24h-0.096A33.088 33.088 0 0 0 754.016 128H270.016c-18.24 0-33.024 14.816-33.024 33.12a33.056 33.056 0 0 0 32.96 33.12h484.128zM258.976 513.664h0.064a121.312 121.312 0 0 1-33.024-1.504v222.72A33.056 33.056 0 0 0 259.008 768h505.984c18.24 0 33.024-14.816 33.024-33.088v-222.848a117.76 117.76 0 0 1-42.368 0.256l-2.016-0.256c-1.408-0.256-2.784-0.672-4.192-1.024a119.232 119.232 0 0 1-17.44-5.248v162.944H292v-162.88c-5.632 2.176-11.52 3.872-17.44 5.28-1.408 0.32-2.784 0.704-4.224 0.96l-1.984 0.288a107.584 107.584 0 0 1-9.376 1.28z" p-id="5222" fill="#ffffff"></path></svg>