<?xml version="1.0" encoding="utf-8"?>
<svg version="1.1" xmlns:xlink="http://www.w3.org/1999/xlink" width="16px" height="16px" xmlns="http://www.w3.org/2000/svg">
  <g transform="matrix(1 0 0 1 -12 -246 )">
    <path d="M 20 246  C 24.48 246  28 249.52  28 254  C 28 258.48  24.48 262  20 262  C 15.52 262  12 258.48  12 254  C 12 249.52  15.52 246  20 246  Z " fill-rule="nonzero" fill="#ffffff" stroke="none" />
    <path d="M 20 246.5  C 24.2 246.5  27.5 249.8  27.5 254  C 27.5 258.2  24.2 261.5  20 261.5  C 15.8 261.5  12.5 258.2  12.5 254  C 12.5 249.8  15.8 246.5  20 246.5  Z " stroke-width="1" stroke="#d7d7d7" fill="none" />
  </g>
</svg>