<svg t="1650334441642" class="icon" viewBox="0 0 1024 1024" version="1.1" xmlns="http://www.w3.org/2000/svg" p-id="2095" width="200" height="200"><path d="M793.6 563.2a230.4 230.4 0 1 0 230.4 230.4 229.888 229.888 0 0 0-230.4-230.4z m0 409.6a179.2 179.2 0 1 1 179.2-179.2 179.2 179.2 0 0 1-179.2 179.2z" p-id="2096" fill="#ffffff"></path><path d="M896 768H819.2v-76.8a25.6 25.6 0 0 0-51.2 0v102.4a25.6 25.6 0 0 0 25.6 25.6h102.4a25.6 25.6 0 0 0 0-51.2zM460.8 819.2H102.4V51.2a51.2 51.2 0 0 0-102.4 0v819.2a51.2 51.2 0 0 0 51.2 51.2h409.6a51.2 51.2 0 0 0 0-102.4z" p-id="2097" fill="#ffffff"></path><path d="M192.512 614.4H204.8a51.2 51.2 0 0 0 51.2-38.912C271.36 507.904 318.464 409.6 358.4 409.6c28.672 0 40.96 11.264 66.048 36.352A184.32 184.32 0 0 0 563.2 512c74.752 0 115.2-83.968 161.792-181.76S834.048 102.4 921.6 102.4a51.2 51.2 0 0 0 0-102.4c-153.6 0-228.352 158.72-289.28 286.208A566.272 566.272 0 0 1 563.2 409.6c-28.672 0-40.96-11.264-66.048-36.352A184.32 184.32 0 0 0 358.4 307.2c-135.68 0-193.024 204.8-204.8 243.712A51.2 51.2 0 0 0 192.512 614.4z" p-id="2098" fill="#ffffff"></path></svg>