<?xml version="1.0" encoding="utf-8"?>
<svg version="1.1" xmlns:xlink="http://www.w3.org/1999/xlink" width="12px" height="12px" viewBox="2195 182.5  12 12" xmlns="http://www.w3.org/2000/svg">
  <path d="M 2201 182.5  C 2204.36 182.5  2207 185.14  2207 188.5  C 2207 191.86  2204.36 194.5  2201 194.5  C 2197.64 194.5  2195 191.86  2195 188.5  C 2195 185.14  2197.64 182.5  2201 182.5  Z " fill-rule="nonzero" fill="#f0f0f0" stroke="none" />
  <path d="M 2201 183  C 2204.08 183  2206.5 185.42  2206.5 188.5  C 2206.5 191.58  2204.08 194  2201 194  C 2197.92 194  2195.5 191.58  2195.5 188.5  C 2195.5 185.42  2197.92 183  2201 183  Z " stroke-width="1" stroke="#797979" fill="none" />
  <path d="M 2201 191.5  C 2199.32 191.5  2198 190.18  2198 188.5  C 2198 186.82  2199.32 185.5  2201 185.5  C 2202.68 185.5  2204 186.82  2204 188.5  C 2204 190.18  2202.68 191.5  2201 191.5  " fill-rule="nonzero" fill="#797979" stroke="none" />
</svg>