<?xml version="1.0" encoding="utf-8"?>
<svg version="1.1" xmlns:xlink="http://www.w3.org/1999/xlink" width="12px" height="12px" viewBox="1978 182.5  12 12" xmlns="http://www.w3.org/2000/svg">
  <path d="M 1984 182.5  C 1987.36 182.5  1990 185.14  1990 188.5  C 1990 191.86  1987.36 194.5  1984 194.5  C 1980.64 194.5  1978 191.86  1978 188.5  C 1978 185.14  1980.64 182.5  1984 182.5  Z " fill-rule="nonzero" fill="#ffffff" stroke="none" />
  <path d="M 1984 183  C 1987.08 183  1989.5 185.42  1989.5 188.5  C 1989.5 191.58  1987.08 194  1984 194  C 1980.92 194  1978.5 191.58  1978.5 188.5  C 1978.5 185.42  1980.92 183  1984 183  Z " stroke-width="1" stroke="#797979" fill="none" />
  <path d="M 1984 191.5  C 1982.32 191.5  1981 190.18  1981 188.5  C 1981 186.82  1982.32 185.5  1984 185.5  C 1985.68 185.5  1987 186.82  1987 188.5  C 1987 190.18  1985.68 191.5  1984 191.5  " fill-rule="nonzero" fill="#797979" stroke="none" />
</svg>