<?xml version="1.0" encoding="utf-8"?>
<svg version="1.1" xmlns:xlink="http://www.w3.org/1999/xlink" width="12px" height="12px" viewBox="1740 182.5  12 12" xmlns="http://www.w3.org/2000/svg">
  <path d="M 1746 182.5  C 1749.36 182.5  1752 185.14  1752 188.5  C 1752 191.86  1749.36 194.5  1746 194.5  C 1742.64 194.5  1740 191.86  1740 188.5  C 1740 185.14  1742.64 182.5  1746 182.5  Z " fill-rule="nonzero" fill="#ffffff" stroke="none" />
  <path d="M 1746 183  C 1749.08 183  1751.5 185.42  1751.5 188.5  C 1751.5 191.58  1749.08 194  1746 194  C 1742.92 194  1740.5 191.58  1740.5 188.5  C 1740.5 185.42  1742.92 183  1746 183  Z " stroke-width="1" stroke="#797979" fill="none" />
  <path d="M 1746 191.5  C 1744.32 191.5  1743 190.18  1743 188.5  C 1743 186.82  1744.32 185.5  1746 185.5  C 1747.68 185.5  1749 186.82  1749 188.5  C 1749 190.18  1747.68 191.5  1746 191.5  " fill-rule="nonzero" fill="#797979" stroke="none" />
</svg>