<svg t="1650442405097" class="icon" viewBox="0 0 1024 1024" version="1.1" xmlns="http://www.w3.org/2000/svg" p-id="7138" width="200" height="200"><path d="M906.404 533.689h-47.75c-11.703 0-21.338-9.416-21.338-21.578 0-11.704 9.635-21.579 21.338-21.579h47.75c-5.5-100.098-48.213-191.226-115.012-257.804-66.801-66.811-157.266-109.513-257.807-115.253v47.981c0 11.712-9.875 21.125-21.576 21.125-11.943 0-21.578-9.413-21.578-21.125v-47.981c-100.561 5.74-191.004 48.442-257.824 115.253-66.8 66.578-109.494 157.706-115.013 257.804h47.29c12.164 0 22.039 9.875 22.039 21.579 0 12.162-9.875 21.578-22.039 21.578h-47.29c5.519 100.559 48.212 190.783 115.013 257.584 66.82 67.039 157.263 109.973 257.824 115.25v-47.527c0-12.164 9.635-21.58 21.578-21.58 11.701 0 21.576 9.416 21.576 21.58v47.527c100.541-5.277 191.006-48.211 257.807-115.25 66.799-66.8 109.512-157.025 115.012-257.584zM512.01 45.156c128.32 0 245.18 52.579 329.885 137.293 84.723 84.482 137.051 201.342 137.051 329.663 0 128.8-52.57 245.419-137.051 330.123v0.463c-84.705 84.48-201.564 136.148-329.885 136.148-129.023 0-245.662-52.578-330.124-136.611C97.382 757.531 45.055 640.912 45.055 512.112c0-128.321 52.327-245.181 136.831-329.663v-0.462c84.462-84.483 201.1-136.831 330.124-136.831z" fill="#1296db" p-id="7139"></path><path d="M517.305 218.086c-37.469 0-67.975 30.505-67.975 67.975 0 37.469 30.506 67.975 67.975 67.975 37.469 0 67.975-30.506 67.975-67.975-0.001-37.47-30.507-67.975-67.975-67.975z m159.488 66.657a54.198 54.198 0 0 0-54.377 54.381 54.198 54.198 0 0 0 54.377 54.38c30.178 0 54.381-24.538 54.381-54.38a54.2 54.2 0 0 0-54.381-54.381zM415.842 553.279l-0.996 17.246v0.662l11.605 198.948h-52.059l-8.62-169.438h-22.215l-10.612 169.438h-48.742l7.627-198.948-3.649-80.575-44.761 63.997-21.886-17.903 63.665-140.593h37.137l35.477 42.11 34.155-41.778h28.517l13.594-31.17h70.957l-5.303 8.953 6.963 14.258-15.254 109.422 23.874 24.205v1.989l0.994-0.995 0.996 0.995v-1.989l23.875-24.205-15.255-109.422 6.962-14.258-5.302-8.953h71.62l9.617 31.17h33.154l35.48 42.11 34.484-42.11h31.502l59.023 130.976-23.543 20.225-39.459-66.317-4.643 89.529v0.662l11.605 198.947h-52.059l-8.621-169.436h-21.885l-10.609 169.436H604.51l7.623-198.947-0.66-14.257-20.229 16.908 8.953 237.743H541.84l-12.93-202.595h-26.528l-10.277 202.595H430.43l13.594-237.743-28.182-20.892z m-59.355-266.536a54.201 54.201 0 0 0-54.38 54.381c0 30.174 24.539 54.38 54.38 54.38 30.174 0 54.381-24.538 54.381-54.38 0.332-30.175-24.207-54.381-54.381-54.381z m0-10" fill="#1296db" p-id="7140"></path></svg>