<?xml version="1.0" encoding="utf-8"?>
<svg version="1.1" xmlns:xlink="http://www.w3.org/1999/xlink" width="141px" height="43px" xmlns="http://www.w3.org/2000/svg">
  <g transform="matrix(1 0 0 1 -1651 -420 )">
    <path d="M 1651.5 462.5  C 1651.5 462.5  1651.5 420.5  1651.5 420.5  C 1651.5 420.5  1783.93848580442 420.5  1783.93848580442 420.5  C 1783.93848580442 420.5  1783.93848580442 427.5395651937  1783.93848580442 427.5395651937  C 1783.93848580442 427.5395651937  1791.37060135267 435.537211153876  1791.37060135267 435.537211153876  C 1791.37060135267 435.537211153876  1783.93848580442 447.197309280448  1783.93848580442 447.197309280448  C 1783.93848580442 447.197309280448  1783.93848580442 462.5  1783.93848580442 462.5  C 1783.93848580442 462.5  1651.5 462.5  1651.5 462.5  Z " fill-rule="nonzero" fill="#dde6f4" stroke="none" />
    <path d="M 1651 463  C 1651 463  1651 420  1651 420  C 1651 420  1784.43848580442 420  1784.43848580442 420  C 1784.43848580442 420  1784.43848580442 427.343109088323  1784.43848580442 427.343109088323  C 1784.43848580442 427.343109088323  1792 435.48  1792 435.48  C 1792 435.48  1784.43848580442 447.343109088323  1784.43848580442 447.343109088323  C 1784.43848580442 447.343109088323  1784.43848580442 463  1784.43848580442 463  C 1784.43848580442 463  1651 463  1651 463  Z M 1652 462  C 1652 462  1783.43848580442 462  1783.43848580442 462  C 1783.43848580442 462  1783.43848580442 447.051509472571  1783.43848580442 447.051509472571  C 1783.43848580442 447.051509472571  1790.74120270534 435.594422307752  1790.74120270534 435.594422307752  C 1790.74120270534 435.594422307752  1783.43848580442 427.736021299077  1783.43848580442 427.736021299077  C 1783.43848580442 427.736021299077  1783.43848580442 421  1783.43848580442 421  C 1783.43848580442 421  1652 421  1652 421  C 1652 421  1652 462  1652 462  Z " fill-rule="nonzero" fill="#d7d7d7" stroke="none" />
  </g>
</svg>