<?xml version="1.0" encoding="utf-8"?>
<svg version="1.1" xmlns:xlink="http://www.w3.org/1999/xlink" width="59px" height="59px" xmlns="http://www.w3.org/2000/svg">
  <g transform="matrix(1 0 0 1 -1574 -104 )">
    <path d="M 1603.5 104  C 1620.02 104  1633 116.98  1633 133.5  C 1633 150.02  1620.02 163  1603.5 163  C 1586.98 163  1574 150.02  1574 133.5  C 1574 116.98  1586.98 104  1603.5 104  Z " fill-rule="nonzero" fill="#f05f5f" stroke="none" />
    <path d="M 1603.5 104.5  C 1619.74 104.5  1632.5 117.26  1632.5 133.5  C 1632.5 149.74  1619.74 162.5  1603.5 162.5  C 1587.26 162.5  1574.5 149.74  1574.5 133.5  C 1574.5 117.26  1587.26 104.5  1603.5 104.5  Z " stroke-width="1" stroke="#f05f5f" fill="none" />
  </g>
</svg>