<?xml version="1.0" encoding="utf-8"?>
<svg version="1.1" xmlns:xlink="http://www.w3.org/1999/xlink" width="38px" height="38px" xmlns="http://www.w3.org/2000/svg">
  <g transform="matrix(1 0 0 1 -520 -116 )">
    <path d="M 539 117  C 549.08 117  557 124.92  557 135  C 557 145.08  549.08 153  539 153  C 528.92 153  521 145.08  521 135  C 521 124.92  528.92 117  539 117  Z " fill-rule="nonzero" fill="#f27171" stroke="none" />
    <path d="M 539 117  C 549.08 117  557 124.92  557 135  C 557 145.08  549.08 153  539 153  C 528.92 153  521 145.08  521 135  C 521 124.92  528.92 117  539 117  Z " stroke-width="2" stroke="#ea9090" fill="none" />
  </g>
</svg>