<svg t="1649749630741" class="icon" viewBox="0 0 1024 1024" version="1.1" xmlns="http://www.w3.org/2000/svg" p-id="10001" width="200" height="200"><path d="M960 704c0-141.38-114.61-256-256-256S448 562.62 448 704s114.62 256 256 256 256-114.62 256-256zM736 864h-64V640h64z m0-256h-64v-64h64z" p-id="10002" fill="#2c2c2c"></path><path d="M256 416h512v-64H256z m576-288H704V64h-64v64H384V64h-64v64H192a64.19 64.19 0 0 0-64 64v640a64.19 64.19 0 0 0 64 64h297.36A288.51 288.51 0 0 1 446 832H192.11l-0.11-0.11V256h640v190a288.52 288.52 0 0 1 64 43.4V192a64.19 64.19 0 0 0-64-64zM256 544h208.51A289.58 289.58 0 0 1 523 480H256z" p-id="10003" fill="#2c2c2c"></path></svg>