<?xml version="1.0" encoding="utf-8"?>
<svg version="1.1" xmlns:xlink="http://www.w3.org/1999/xlink" width="12px" height="12px" viewBox="380 233.5  12 12" xmlns="http://www.w3.org/2000/svg">
  <path d="M 386 233.5  C 389.36 233.5  392 236.14  392 239.5  C 392 242.86  389.36 245.5  386 245.5  C 382.64 245.5  380 242.86  380 239.5  C 380 236.14  382.64 233.5  386 233.5  Z " fill-rule="nonzero" fill="#f0f0f0" stroke="none" />
  <path d="M 386 234  C 389.08 234  391.5 236.42  391.5 239.5  C 391.5 242.58  389.08 245  386 245  C 382.92 245  380.5 242.58  380.5 239.5  C 380.5 236.42  382.92 234  386 234  Z " stroke-width="1" stroke="#797979" fill="none" />
  <path d="M 386 242.5  C 384.32 242.5  383 241.18  383 239.5  C 383 237.82  384.32 236.5  386 236.5  C 387.68 236.5  389 237.82  389 239.5  C 389 241.18  387.68 242.5  386 242.5  " fill-rule="nonzero" fill="#797979" stroke="none" />
</svg>